<?xml version="1.0" encoding="UTF-8"?>
<svg version="1.1" xmlns="http://www.w3.org/2000/svg" width="92" height="92">
<path d="M0 0 C-0.67095703 0.96486328 -0.67095703 0.96486328 -1.35546875 1.94921875 C-12.07740145 17.97496464 -16.71539161 35.70418541 -13.0625 54.875 C-12.55294189 57.71992026 -12.55294189 57.71992026 -11 60 C-11.05220703 58.09541016 -11.05220703 58.09541016 -11.10546875 56.15234375 C-11.51096199 35.38297984 -7.84287708 16.91771184 5.984375 0.66796875 C8.23772477 -1.19672185 9.35617619 -1.61783387 12.25 -1.6875 C18.22222222 -0.59259259 18.22222222 -0.59259259 20 0 C20 0.66 20 1.32 20 2 C18.85423404 3.04755745 17.6560644 4.03809717 16.4375 5 C2.84698261 16.59756166 -3.13834391 34.15231291 -4.75 51.5 C-4.84700563 52.99917789 -4.93639974 54.49903383 -5 56 C-4.34 55.67 -3.68 55.34 -3 55 C-2.4847776 52.74552974 -2.06431378 50.46918833 -1.6875 48.1875 C1.30078313 31.80171499 9.45867965 16.31426476 22.6875 5.875 C26 4 26 4 28.75 4.0625 C31 5 31 5 34 7 C32.82759921 10.51720236 31.87802786 11.06406565 28.9375 13.1875 C14.6024353 24.09757297 7.56405203 36.90674744 3 54 C3.66 54 4.32 54 5 54 C5.185625 53.14341797 5.185625 53.14341797 5.375 52.26953125 C9.9817333 34.15931096 22.81529113 21.71633612 38 12 C39.98 13.65 41.96 15.3 44 17 C42.76796431 20.69610708 41.90566889 20.84128119 38.5625 22.625 C27.17171405 29.2153833 15.24167989 40.46454035 11.25 53.4375 C11.1675 53.953125 11.085 54.46875 11 55 C11.66 55 12.32 55 13 55 C13.26683594 54.26265625 13.53367188 53.5253125 13.80859375 52.765625 C19.24664649 40.14221077 31.90830384 29.94063252 44 24 C45.32 24 46.64 24 48 24 C49.25664978 26.90600261 50 28.79604584 50 32 C49.10539062 32.4125 48.21078125 32.825 47.2890625 33.25 C36.23525126 38.4755217 26.21192186 44.82689169 19 55 C19 55.66 19 56.32 19 57 C22.22913204 55.60399968 24.06344077 54.00034555 26.375 51.375 C29.94032425 47.71602746 33.67234892 45.10355433 38.0625 42.5625 C38.63983887 42.2207373 39.21717773 41.87897461 39.81201172 41.52685547 C43.84479022 39.27905856 47.42296196 38.41397414 52 38 C52 40.31 52 42.62 52 45 C50.88882813 45.4846875 49.77765625 45.969375 48.6328125 46.46875 C39.77397159 50.427697 32.18481146 54.36243462 25 61 C28.55734607 61 29.66815878 60.1461331 32.625 58.25 C38.64718413 54.53119141 44.871586 50.91979536 52 50 C50.8757725 62.64755933 45.34852662 72.16269424 36.1875 80.75 C25.51877022 89.64404746 13.54299885 91.95187141 0.01318359 91.19091797 C-9.72106166 90.26778193 -17.58544941 86.15695897 -25 80 C-25.97066406 79.21496094 -25.97066406 79.21496094 -26.9609375 78.4140625 C-34.10148255 72.02187152 -39.46413231 61.44796824 -40.15454102 51.85205078 C-40.19553804 49.5851853 -40.17549847 47.32910432 -40.125 45.0625 C-40.11597656 44.28326172 -40.10695312 43.50402344 -40.09765625 42.70117188 C-40.07433691 40.80064553 -40.03847586 38.90027992 -40 37 C-37.16733661 39.83266339 -36.54225485 43.24973427 -35.4375 47 C-34.00365841 52.10847628 -34.00365841 52.10847628 -32 57 C-31.01 57.33 -30.02 57.66 -29 58 C-29.26554687 57.32195313 -29.53109375 56.64390625 -29.8046875 55.9453125 C-33.87144768 45.22925102 -38.74053028 30.61253769 -33.90234375 19.47265625 C-32.40924375 17.39824265 -30.88212652 15.72698377 -29 14 C-28.35417969 13.40316406 -27.70835938 12.80632813 -27.04296875 12.19140625 C-25.39739236 10.74021566 -23.72868842 9.35021818 -22 8 C-22.2165625 8.75539063 -22.433125 9.51078125 -22.65625 10.2890625 C-26.44773919 25.27948736 -27.77612068 43.65302843 -21 58 C-18.98244072 60.32210053 -18.98244072 60.32210053 -17 62 C-17.27714844 61.14277344 -17.55429687 60.28554688 -17.83984375 59.40234375 C-23.71931171 40.84331145 -22.98540274 24.46575258 -15.28125 6.390625 C-13.19937259 2.50614642 -11.73777452 1.26828164 -7.5625 -0.25 C-4.21769207 -0.95417009 -3.09363518 -0.95188775 0 0 Z " fill="#204134" transform="translate(40,1)"/>
<path d="M0 0 C5.97222222 1.09490741 5.97222222 1.09490741 7.75 1.6875 C7.75 2.3475 7.75 3.0075 7.75 3.6875 C6.60423404 4.73505745 5.4060644 5.72559717 4.1875 6.6875 C-8.38582717 17.41703537 -15.21520685 34.00783465 -16.54296875 50.27734375 C-16.63341676 52.29408999 -16.68637826 54.31325972 -16.68359375 56.33203125 C-17.25 58.6875 -17.25 58.6875 -19.78515625 60.51171875 C-21.00525391 61.09373047 -21.00525391 61.09373047 -22.25 61.6875 C-26.00160964 41.56798055 -20.77906138 24.33069876 -10.23046875 7.45703125 C-4.9838048 0.11998049 -4.9838048 0.11998049 0 0 Z " fill="#EEC435" transform="translate(52.25,-0.6875)"/>
<path d="M0 0 C-0.67095703 0.96486328 -0.67095703 0.96486328 -1.35546875 1.94921875 C-11.43363351 17.01274433 -16.45970639 33.84820861 -13.51171875 52.0078125 C-13.15572204 53.63038255 -12.77049102 55.2471903 -12.33984375 56.8515625 C-11.92824042 59.45365249 -12.36332199 61.46219256 -13 64 C-14.32 63.67 -15.64 63.34 -17 63 C-17.65177969 60.81426438 -18.29614674 58.6263177 -18.9375 56.4375 C-19.29714844 55.21933594 -19.65679688 54.00117187 -20.02734375 52.74609375 C-24.26215409 36.43612139 -21.97321993 18.87686158 -14 4 C-10.40077385 -0.36979218 -5.35345228 -1.64721609 0 0 Z " fill="#F2D333" transform="translate(40,1)"/>
<path d="M0 0 C-3.16249631 10.11998818 -11.852559 18.01430242 -21 22.8125 C-27.23613371 25.72014517 -33.03605348 27.34819733 -40 27 C-37.11234477 16.73278141 -26.82073191 9.97667754 -18 5 C-12.12325332 2.22307575 -6.59948678 -0.3760737 0 0 Z " fill="#6B933B" transform="translate(88,65)"/>
<path d="M0 0 C15.37682135 2.74892896 28.68470071 10.24372193 39 22 C40.32421875 24.83203125 40.32421875 24.83203125 41 27 C33.14125236 28.78821803 26.0994739 26.29956638 19.1796875 22.41796875 C16.6722042 20.71947471 14.32714771 18.9372376 12 17 C11.34128906 16.4534375 10.68257812 15.906875 10.00390625 15.34375 C5.19985542 10.96328215 2.58175633 5.91305482 0 0 Z " fill="#6B933B" transform="translate(3,64)"/>
<path d="M0 0 C2.1875 1 2.1875 1 5.1875 3 C4.01509921 6.51720236 3.06552786 7.06406565 0.125 9.1875 C-14.2100647 20.09757297 -21.24844797 32.90674744 -25.8125 50 C-28.2875 50.495 -28.2875 50.495 -30.8125 51 C-31.32161516 34.91196083 -23.33094565 20.31958838 -13.08203125 8.39453125 C-5.1257137 0 -5.1257137 0 0 0 Z " fill="#E6B939" transform="translate(68.8125,5)"/>
<path d="M0 0 C1.38635875 2.77271751 0.51451868 3.82201365 -0.4375 6.75 C-4.14051259 20.97916875 -3.15857395 36.30595429 2 50 C2.33 50.99 2.66 51.98 3 53 C-3.5067535 52.50892426 -3.5067535 52.50892426 -5.59765625 50.3515625 C-7.2874888 47.51791571 -8.18866271 44.78790312 -9.125 41.625 C-9.45757812 40.52414063 -9.79015625 39.42328125 -10.1328125 38.2890625 C-12.28231066 30.13646138 -14.39723218 19.39999359 -10.87109375 11.45703125 C-9.37405096 9.43621892 -7.81962709 7.73356364 -6 6 C-5.42765625 5.40316406 -4.8553125 4.80632813 -4.265625 4.19140625 C-2.87770884 2.76053078 -1.44350969 1.37477113 0 0 Z " fill="#F6DE2D" transform="translate(17,9)"/>
<path d="M0 0 C1.98 1.65 3.96 3.3 6 5 C4.76796431 8.69610708 3.90566889 8.84128119 0.5625 10.625 C-12.75667255 18.33109269 -21.11921737 29.51568239 -28 43 C-29.65 43 -31.3 43 -33 43 C-31.26927401 28.54077018 -20.95129292 15.93356506 -10.25390625 6.76171875 C-6.98474675 4.2064485 -3.58526894 2.08597466 0 0 Z " fill="#DFAE3F" transform="translate(78,13)"/>
<path d="M0 0 C1.25664978 2.90600261 2 4.79604584 2 8 C0.65808594 8.61875 0.65808594 8.61875 -0.7109375 9.25 C-13.00214408 15.05787655 -21.87377599 21.92291252 -30 33 C-31.65 32.67 -33.3 32.34 -35 32 C-32.80385286 21.09246921 -22.364174 11.60819718 -13.5390625 5.5234375 C-5.03062339 0 -5.03062339 0 0 0 Z " fill="#DAA542" transform="translate(88,25)"/>
<path d="M0 0 C3.14684544 1.25340454 5.87249209 2.67032018 7.90625 5.421875 C7.90625 6.081875 7.90625 6.741875 7.90625 7.421875 C6.35309614 8.79436181 4.73739316 10.09666201 3.09375 11.359375 C0.20063661 13.59287524 -2.5826438 15.76060298 -5.09375 18.421875 C-8.53886328 16.91955391 -10.96377875 14.89781841 -13.71875 12.359375 C-16.68164167 9.56407042 -16.68164167 9.56407042 -20.09375 7.421875 C-16.97354461 -1.31470008 -7.88088592 -2.17606552 0 0 Z " fill="#F5E120" transform="translate(52.09375,62.578125)"/>
<path d="M0 0 C0 2.31 0 4.62 0 7 C-1.11117187 7.4846875 -2.22234375 7.969375 -3.3671875 8.46875 C-11.41409993 12.06606548 -18.51303235 15.54839168 -25.1171875 21.53125 C-27 23 -27 23 -30 23 C-30.66 22.67 -31.32 22.34 -32 22 C-27.38069627 11.53586297 -16.74690696 5.91103795 -7 1 C-4 0 -4 0 0 0 Z " fill="#D39743" transform="translate(92,39)"/>
<path d="M0 0 C0.93423645 3.01031744 1.04449911 3.86650268 0 7 C-1.6706543 7.75195312 -1.6706543 7.75195312 -3.82421875 8.28125 C-4.99694336 8.58482422 -4.99694336 8.58482422 -6.19335938 8.89453125 C-7.01642578 9.09433594 -7.83949219 9.29414062 -8.6875 9.5 C-14.17444771 10.86403672 -18.96608495 12.33998959 -24 15 C-24.66 15 -25.32 15 -26 15 C-24.6595797 10.97873909 -22.14896736 10.0103197 -18.625 8.0625 C-18.00028809 7.71058594 -17.37557617 7.35867187 -16.73193359 6.99609375 C-11.36210541 4.04548859 -5.85497236 1.81623632 0 0 Z " fill="#CA8748" transform="translate(91,51)"/>
<path d="M0 0 C2.82054147 2.82054147 3.45618419 6.20491522 4.5625 9.9375 C5.00122407 11.38413825 5.44002329 12.8307537 5.87890625 14.27734375 C6.24886719 15.50582031 6.61882813 16.73429687 7 18 C7.33 18.99 7.66 19.98 8 21 C5.69 20.67 3.38 20.34 1 20 C0.09761253 17.29283758 -0.11851302 15.76223232 -0.09765625 12.98828125 C-0.09443359 12.23095703 -0.09121094 11.47363281 -0.08789062 10.69335938 C-0.07951172 9.90767578 -0.07113281 9.12199219 -0.0625 8.3125 C-0.05798828 7.51521484 -0.05347656 6.71792969 -0.04882812 5.89648438 C-0.0370585 3.93095743 -0.01912348 1.96546915 0 0 Z " fill="#F6E220" transform="translate(0,38)"/>
</svg>
